solid OpenSCAD_Model
  facet normal 1 -0 0
    outer loop
      vertex 4 0 15
      vertex 4 3.2 0
      vertex 4 3.2 15
    endloop
  endfacet
  facet normal 1 0 0
    outer loop
      vertex 4 3.2 0
      vertex 4 0 15
      vertex 4 0 0
    endloop
  endfacet
  facet normal 0 0 1
    outer loop
      vertex 4 3.2 15
      vertex 2.7 1.6 15
      vertex 4 0 15
    endloop
  endfacet
  facet normal 0 0 1
    outer loop
      vertex 4 3.2 15
      vertex 2.6985 1.64578 15
      vertex 2.7 1.6 15
    endloop
  endfacet
  facet normal 0 0 1
    outer loop
      vertex 4 3.2 15
      vertex 2.69401 1.69137 15
      vertex 2.6985 1.64578 15
    endloop
  endfacet
  facet normal 0 0 1
    outer loop
      vertex 4 3.2 15
      vertex 2.68655 1.73656 15
      vertex 2.69401 1.69137 15
    endloop
  endfacet
  facet normal 0 0 1
    outer loop
      vertex 4 3.2 15
      vertex 2.67615 1.78117 15
      vertex 2.68655 1.73656 15
    endloop
  endfacet
  facet normal 0 0 1
    outer loop
      vertex 4 3.2 15
      vertex 2.66285 1.82501 15
      vertex 2.67615 1.78117 15
    endloop
  endfacet
  facet normal 0 0 1
    outer loop
      vertex 4 3.2 15
      vertex 2.64672 1.86788 15
      vertex 2.66285 1.82501 15
    endloop
  endfacet
  facet normal 0 0 1
    outer loop
      vertex 4 3.2 15
      vertex 2.62781 1.9096 15
      vertex 2.64672 1.86788 15
    endloop
  endfacet
  facet normal 0 0 1
    outer loop
      vertex 4 3.2 15
      vertex 2.60622 1.95 15
      vertex 2.62781 1.9096 15
    endloop
  endfacet
  facet normal 0 0 1
    outer loop
      vertex 4 3.2 15
      vertex 2.58203 1.9889 15
      vertex 2.60622 1.95 15
    endloop
  endfacet
  facet normal 0 0 1
    outer loop
      vertex 4 3.2 15
      vertex 2.55535 2.02613 15
      vertex 2.58203 1.9889 15
    endloop
  endfacet
  facet normal 0 0 1
    outer loop
      vertex 4 3.2 15
      vertex 2.52629 2.06154 15
      vertex 2.55535 2.02613 15
    endloop
  endfacet
  facet normal 0 0 1
    outer loop
      vertex 4 3.2 15
      vertex 2.49497 2.09497 15
      vertex 2.52629 2.06154 15
    endloop
  endfacet
  facet normal 0 0 1
    outer loop
      vertex 4 3.2 15
      vertex 2.46154 2.12629 15
      vertex 2.49497 2.09497 15
    endloop
  endfacet
  facet normal 0 0 1
    outer loop
      vertex 4 3.2 15
      vertex 2.42613 2.15535 15
      vertex 2.46154 2.12629 15
    endloop
  endfacet
  facet normal 0 0 1
    outer loop
      vertex 4 3.2 15
      vertex 2.3889 2.18203 15
      vertex 2.42613 2.15535 15
    endloop
  endfacet
  facet normal 0 0 1
    outer loop
      vertex 4 3.2 15
      vertex 2.35 2.20622 15
      vertex 2.3889 2.18203 15
    endloop
  endfacet
  facet normal 0 0 1
    outer loop
      vertex 4 3.2 15
      vertex 2.3096 2.22781 15
      vertex 2.35 2.20622 15
    endloop
  endfacet
  facet normal 0 0 1
    outer loop
      vertex 4 3.2 15
      vertex 2.26788 2.24672 15
      vertex 2.3096 2.22781 15
    endloop
  endfacet
  facet normal 0 0 1
    outer loop
      vertex 4 3.2 15
      vertex 2.22501 2.26285 15
      vertex 2.26788 2.24672 15
    endloop
  endfacet
  facet normal 0 0 1
    outer loop
      vertex 4 3.2 15
      vertex 2.18117 2.27615 15
      vertex 2.22501 2.26285 15
    endloop
  endfacet
  facet normal 0 0 1
    outer loop
      vertex 4 3.2 15
      vertex 2.13656 2.28655 15
      vertex 2.18117 2.27615 15
    endloop
  endfacet
  facet normal 0 0 1
    outer loop
      vertex 4 3.2 15
      vertex 2.09137 2.29401 15
      vertex 2.13656 2.28655 15
    endloop
  endfacet
  facet normal 0 0 1
    outer loop
      vertex 4 3.2 15
      vertex 2.04578 2.2985 15
      vertex 2.09137 2.29401 15
    endloop
  endfacet
  facet normal 0 0 1
    outer loop
      vertex 4 3.2 15
      vertex 2 2.3 15
      vertex 2.04578 2.2985 15
    endloop
  endfacet
  facet normal -0 0 1
    outer loop
      vertex 0 3.2 15
      vertex 2 2.3 15
      vertex 4 3.2 15
    endloop
  endfacet
  facet normal 0 0 1
    outer loop
      vertex 2 2.3 15
      vertex 0 3.2 15
      vertex 1.95422 2.2985 15
    endloop
  endfacet
  facet normal 0 0 1
    outer loop
      vertex 1.95422 2.2985 15
      vertex 0 3.2 15
      vertex 1.90863 2.29401 15
    endloop
  endfacet
  facet normal 0 0 1
    outer loop
      vertex 1.90863 2.29401 15
      vertex 0 3.2 15
      vertex 1.86344 2.28655 15
    endloop
  endfacet
  facet normal 0 0 1
    outer loop
      vertex 1.86344 2.28655 15
      vertex 0 3.2 15
      vertex 1.81883 2.27615 15
    endloop
  endfacet
  facet normal 0 0 1
    outer loop
      vertex 1.81883 2.27615 15
      vertex 0 3.2 15
      vertex 1.77499 2.26285 15
    endloop
  endfacet
  facet normal 0 0 1
    outer loop
      vertex 1.3015 1.64578 15
      vertex 0 3.2 15
      vertex 1.3 1.6 15
    endloop
  endfacet
  facet normal 0 0 1
    outer loop
      vertex 1.30599 1.69137 15
      vertex 0 3.2 15
      vertex 1.3015 1.64578 15
    endloop
  endfacet
  facet normal 0 0 1
    outer loop
      vertex 1.31345 1.73656 15
      vertex 0 3.2 15
      vertex 1.30599 1.69137 15
    endloop
  endfacet
  facet normal 0 0 1
    outer loop
      vertex 1.32385 1.78117 15
      vertex 0 3.2 15
      vertex 1.31345 1.73656 15
    endloop
  endfacet
  facet normal 0 0 1
    outer loop
      vertex 1.33715 1.82501 15
      vertex 0 3.2 15
      vertex 1.32385 1.78117 15
    endloop
  endfacet
  facet normal 0 0 1
    outer loop
      vertex 1.35328 1.86788 15
      vertex 0 3.2 15
      vertex 1.33715 1.82501 15
    endloop
  endfacet
  facet normal 0 0 1
    outer loop
      vertex 1.37219 1.9096 15
      vertex 0 3.2 15
      vertex 1.35328 1.86788 15
    endloop
  endfacet
  facet normal 0 0 1
    outer loop
      vertex 1.39378 1.95 15
      vertex 0 3.2 15
      vertex 1.37219 1.9096 15
    endloop
  endfacet
  facet normal 0 0 1
    outer loop
      vertex 1.41797 1.9889 15
      vertex 0 3.2 15
      vertex 1.39378 1.95 15
    endloop
  endfacet
  facet normal 0 0 1
    outer loop
      vertex 1.44465 2.02613 15
      vertex 0 3.2 15
      vertex 1.41797 1.9889 15
    endloop
  endfacet
  facet normal 0 0 1
    outer loop
      vertex 1.47371 2.06154 15
      vertex 0 3.2 15
      vertex 1.44465 2.02613 15
    endloop
  endfacet
  facet normal 0 0 1
    outer loop
      vertex 1.50502 2.09497 15
      vertex 0 3.2 15
      vertex 1.47371 2.06154 15
    endloop
  endfacet
  facet normal 0 0 1
    outer loop
      vertex 1.53846 2.12629 15
      vertex 0 3.2 15
      vertex 1.50502 2.09497 15
    endloop
  endfacet
  facet normal 0 0 1
    outer loop
      vertex 1.57387 2.15535 15
      vertex 0 3.2 15
      vertex 1.53846 2.12629 15
    endloop
  endfacet
  facet normal 0 0 1
    outer loop
      vertex 1.6111 2.18203 15
      vertex 0 3.2 15
      vertex 1.57387 2.15535 15
    endloop
  endfacet
  facet normal 0 0 1
    outer loop
      vertex 1.65 2.20622 15
      vertex 0 3.2 15
      vertex 1.6111 2.18203 15
    endloop
  endfacet
  facet normal 0 0 1
    outer loop
      vertex 1.6904 2.22781 15
      vertex 0 3.2 15
      vertex 1.65 2.20622 15
    endloop
  endfacet
  facet normal 0 0 1
    outer loop
      vertex 1.73212 2.24672 15
      vertex 0 3.2 15
      vertex 1.6904 2.22781 15
    endloop
  endfacet
  facet normal 0 0 1
    outer loop
      vertex 1.77499 2.26285 15
      vertex 0 3.2 15
      vertex 1.73212 2.24672 15
    endloop
  endfacet
  facet normal -0 0 1
    outer loop
      vertex 2.6985 1.55422 15
      vertex 4 0 15
      vertex 2.7 1.6 15
    endloop
  endfacet
  facet normal -0 0 1
    outer loop
      vertex 2.69401 1.50863 15
      vertex 4 0 15
      vertex 2.6985 1.55422 15
    endloop
  endfacet
  facet normal -0 0 1
    outer loop
      vertex 2.68655 1.46344 15
      vertex 4 0 15
      vertex 2.69401 1.50863 15
    endloop
  endfacet
  facet normal -0 0 1
    outer loop
      vertex 2.67615 1.41883 15
      vertex 4 0 15
      vertex 2.68655 1.46344 15
    endloop
  endfacet
  facet normal -0 0 1
    outer loop
      vertex 2.66285 1.37499 15
      vertex 4 0 15
      vertex 2.67615 1.41883 15
    endloop
  endfacet
  facet normal -0 0 1
    outer loop
      vertex 2.64672 1.33212 15
      vertex 4 0 15
      vertex 2.66285 1.37499 15
    endloop
  endfacet
  facet normal -0 0 1
    outer loop
      vertex 2.62781 1.2904 15
      vertex 4 0 15
      vertex 2.64672 1.33212 15
    endloop
  endfacet
  facet normal -0 0 1
    outer loop
      vertex 2.60622 1.25 15
      vertex 4 0 15
      vertex 2.62781 1.2904 15
    endloop
  endfacet
  facet normal -0 0 1
    outer loop
      vertex 2.58203 1.2111 15
      vertex 4 0 15
      vertex 2.60622 1.25 15
    endloop
  endfacet
  facet normal -0 0 1
    outer loop
      vertex 2.55535 1.17387 15
      vertex 4 0 15
      vertex 2.58203 1.2111 15
    endloop
  endfacet
  facet normal -0 0 1
    outer loop
      vertex 2.52629 1.13846 15
      vertex 4 0 15
      vertex 2.55535 1.17387 15
    endloop
  endfacet
  facet normal -0 0 1
    outer loop
      vertex 2.49497 1.10502 15
      vertex 4 0 15
      vertex 2.52629 1.13846 15
    endloop
  endfacet
  facet normal -0 0 1
    outer loop
      vertex 2.46154 1.07371 15
      vertex 4 0 15
      vertex 2.49497 1.10502 15
    endloop
  endfacet
  facet normal -0 0 1
    outer loop
      vertex 2.42613 1.04465 15
      vertex 4 0 15
      vertex 2.46154 1.07371 15
    endloop
  endfacet
  facet normal -0 0 1
    outer loop
      vertex 2.3889 1.01797 15
      vertex 4 0 15
      vertex 2.42613 1.04465 15
    endloop
  endfacet
  facet normal -0 0 1
    outer loop
      vertex 2.35 0.993782 15
      vertex 4 0 15
      vertex 2.3889 1.01797 15
    endloop
  endfacet
  facet normal -0 0 1
    outer loop
      vertex 2.3096 0.972189 15
      vertex 4 0 15
      vertex 2.35 0.993782 15
    endloop
  endfacet
  facet normal -0 0 1
    outer loop
      vertex 2.26788 0.953284 15
      vertex 4 0 15
      vertex 2.3096 0.972189 15
    endloop
  endfacet
  facet normal -0 0 1
    outer loop
      vertex 2.22501 0.937148 15
      vertex 4 0 15
      vertex 2.26788 0.953284 15
    endloop
  endfacet
  facet normal -0 0 1
    outer loop
      vertex 2.18117 0.923851 15
      vertex 4 0 15
      vertex 2.22501 0.937148 15
    endloop
  endfacet
  facet normal -0 0 1
    outer loop
      vertex 2.13656 0.91345 15
      vertex 4 0 15
      vertex 2.18117 0.923851 15
    endloop
  endfacet
  facet normal -0 0 1
    outer loop
      vertex 2.09137 0.905988 15
      vertex 4 0 15
      vertex 2.13656 0.91345 15
    endloop
  endfacet
  facet normal -0 0 1
    outer loop
      vertex 2.04578 0.901498 15
      vertex 4 0 15
      vertex 2.09137 0.905988 15
    endloop
  endfacet
  facet normal -0 0 1
    outer loop
      vertex 2 0.9 15
      vertex 4 0 15
      vertex 2.04578 0.901498 15
    endloop
  endfacet
  facet normal 0 0 1
    outer loop
      vertex 0 0 15
      vertex 2 0.9 15
      vertex 1.95422 0.901498 15
    endloop
  endfacet
  facet normal 0 0 1
    outer loop
      vertex 0 0 15
      vertex 1.95422 0.901498 15
      vertex 1.90863 0.905988 15
    endloop
  endfacet
  facet normal 0 0 1
    outer loop
      vertex 0 0 15
      vertex 1.90863 0.905988 15
      vertex 1.86344 0.91345 15
    endloop
  endfacet
  facet normal 0 0 1
    outer loop
      vertex 0 0 15
      vertex 1.86344 0.91345 15
      vertex 1.81883 0.923851 15
    endloop
  endfacet
  facet normal 0 0 1
    outer loop
      vertex 0 0 15
      vertex 1.81883 0.923851 15
      vertex 1.77499 0.937148 15
    endloop
  endfacet
  facet normal 0 0 1
    outer loop
      vertex 0 0 15
      vertex 1.77499 0.937148 15
      vertex 1.73212 0.953284 15
    endloop
  endfacet
  facet normal 0 0 1
    outer loop
      vertex 0 0 15
      vertex 1.3 1.6 15
      vertex 0 3.2 15
    endloop
  endfacet
  facet normal 0 0 1
    outer loop
      vertex 1.3 1.6 15
      vertex 0 0 15
      vertex 1.3015 1.55422 15
    endloop
  endfacet
  facet normal 0 0 1
    outer loop
      vertex 1.3015 1.55422 15
      vertex 0 0 15
      vertex 1.30599 1.50863 15
    endloop
  endfacet
  facet normal 0 0 1
    outer loop
      vertex 1.30599 1.50863 15
      vertex 0 0 15
      vertex 1.31345 1.46344 15
    endloop
  endfacet
  facet normal 0 0 1
    outer loop
      vertex 1.31345 1.46344 15
      vertex 0 0 15
      vertex 1.32385 1.41883 15
    endloop
  endfacet
  facet normal 0 0 1
    outer loop
      vertex 1.32385 1.41883 15
      vertex 0 0 15
      vertex 1.33715 1.37499 15
    endloop
  endfacet
  facet normal 0 0 1
    outer loop
      vertex 1.33715 1.37499 15
      vertex 0 0 15
      vertex 1.35328 1.33212 15
    endloop
  endfacet
  facet normal 0 0 1
    outer loop
      vertex 1.35328 1.33212 15
      vertex 0 0 15
      vertex 1.37219 1.2904 15
    endloop
  endfacet
  facet normal 0 0 1
    outer loop
      vertex 1.37219 1.2904 15
      vertex 0 0 15
      vertex 1.39378 1.25 15
    endloop
  endfacet
  facet normal 0 0 1
    outer loop
      vertex 2 0.9 15
      vertex 0 0 15
      vertex 4 0 15
    endloop
  endfacet
  facet normal 0 0 1
    outer loop
      vertex 1.6904 0.972189 15
      vertex 0 0 15
      vertex 1.73212 0.953284 15
    endloop
  endfacet
  facet normal 0 0 1
    outer loop
      vertex 1.65 0.993782 15
      vertex 0 0 15
      vertex 1.6904 0.972189 15
    endloop
  endfacet
  facet normal 0 0 1
    outer loop
      vertex 1.6111 1.01797 15
      vertex 0 0 15
      vertex 1.65 0.993782 15
    endloop
  endfacet
  facet normal 0 0 1
    outer loop
      vertex 1.57387 1.04465 15
      vertex 0 0 15
      vertex 1.6111 1.01797 15
    endloop
  endfacet
  facet normal 0 0 1
    outer loop
      vertex 1.53846 1.07371 15
      vertex 0 0 15
      vertex 1.57387 1.04465 15
    endloop
  endfacet
  facet normal 0 0 1
    outer loop
      vertex 1.50502 1.10502 15
      vertex 0 0 15
      vertex 1.53846 1.07371 15
    endloop
  endfacet
  facet normal 0 0 1
    outer loop
      vertex 1.47371 1.13846 15
      vertex 0 0 15
      vertex 1.50502 1.10502 15
    endloop
  endfacet
  facet normal 0 0 1
    outer loop
      vertex 1.44465 1.17387 15
      vertex 0 0 15
      vertex 1.47371 1.13846 15
    endloop
  endfacet
  facet normal 0 0 1
    outer loop
      vertex 1.41797 1.2111 15
      vertex 0 0 15
      vertex 1.44465 1.17387 15
    endloop
  endfacet
  facet normal 0 0 1
    outer loop
      vertex 1.39378 1.25 15
      vertex 0 0 15
      vertex 1.41797 1.2111 15
    endloop
  endfacet
  facet normal 0 0 -1
    outer loop
      vertex 0 0 0
      vertex 4 3.2 0
      vertex 4 0 0
    endloop
  endfacet
  facet normal -0 0 -1
    outer loop
      vertex 4 3.2 0
      vertex 0 0 0
      vertex 0 3.2 0
    endloop
  endfacet
  facet normal -1 0 0
    outer loop
      vertex 0 0 0
      vertex 0 3.2 15
      vertex 0 3.2 0
    endloop
  endfacet
  facet normal -1 -0 0
    outer loop
      vertex 0 3.2 15
      vertex 0 0 0
      vertex 0 0 15
    endloop
  endfacet
  facet normal 0 1 -0
    outer loop
      vertex 4 3.2 0
      vertex 0 3.2 15
      vertex 4 3.2 15
    endloop
  endfacet
  facet normal 0 1 0
    outer loop
      vertex 0 3.2 15
      vertex 4 3.2 0
      vertex 0 3.2 0
    endloop
  endfacet
  facet normal 0 -1 0
    outer loop
      vertex 0 0 0
      vertex 4 0 15
      vertex 0 0 15
    endloop
  endfacet
  facet normal 0 -1 -0
    outer loop
      vertex 4 0 15
      vertex 0 0 0
      vertex 4 0 0
    endloop
  endfacet
  facet normal -0.986646 -0.162876 0
    outer loop
      vertex 1.31345 1.46344 15
      vertex 1.30599 1.50863 25
      vertex 1.30599 1.50863 15
    endloop
  endfacet
  facet normal -0.986646 -0.162876 0
    outer loop
      vertex 1.30599 1.50863 25
      vertex 1.31345 1.46344 15
      vertex 1.31345 1.46344 25
    endloop
  endfacet
  facet normal -0.227043 0.973885 0
    outer loop
      vertex 1.86344 2.28655 15
      vertex 1.81883 2.27615 25
      vertex 1.86344 2.28655 25
    endloop
  endfacet
  facet normal -0.227043 0.973885 0
    outer loop
      vertex 1.81883 2.27615 25
      vertex 1.86344 2.28655 15
      vertex 1.81883 2.27615 15
    endloop
  endfacet
  facet normal -0.956933 -0.29031 0
    outer loop
      vertex 1.33715 1.37499 15
      vertex 1.32385 1.41883 25
      vertex 1.32385 1.41883 15
    endloop
  endfacet
  facet normal -0.956933 -0.29031 0
    outer loop
      vertex 1.32385 1.41883 25
      vertex 1.33715 1.37499 15
      vertex 1.33715 1.37499 25
    endloop
  endfacet
  facet normal 0.528043 -0.849218 0
    outer loop
      vertex 2.35 0.993782 15
      vertex 2.3889 1.01797 25
      vertex 2.35 0.993782 25
    endloop
  endfacet
  facet normal 0.528043 -0.849218 0
    outer loop
      vertex 2.3889 1.01797 25
      vertex 2.35 0.993782 15
      vertex 2.3889 1.01797 15
    endloop
  endfacet
  facet normal -0.29025 -0.956951 0
    outer loop
      vertex 1.77499 0.937148 15
      vertex 1.81883 0.923851 25
      vertex 1.77499 0.937148 25
    endloop
  endfacet
  facet normal -0.29025 -0.956951 -0
    outer loop
      vertex 1.81883 0.923851 25
      vertex 1.77499 0.937148 15
      vertex 1.81883 0.923851 15
    endloop
  endfacet
  facet normal -0.995185 0.0980123 0
    outer loop
      vertex 1.3015 1.64578 15
      vertex 1.30599 1.69137 25
      vertex 1.30599 1.69137 15
    endloop
  endfacet
  facet normal -0.995185 0.0980123 0
    outer loop
      vertex 1.30599 1.69137 25
      vertex 1.3015 1.64578 15
      vertex 1.3015 1.64578 25
    endloop
  endfacet
  facet normal 0.956933 -0.29031 0
    outer loop
      vertex 2.66285 1.37499 25
      vertex 2.67615 1.41883 15
      vertex 2.67615 1.41883 25
    endloop
  endfacet
  facet normal 0.956933 -0.29031 0
    outer loop
      vertex 2.67615 1.41883 15
      vertex 2.66285 1.37499 25
      vertex 2.66285 1.37499 15
    endloop
  endfacet
  facet normal 0.729762 0.683701 0
    outer loop
      vertex 2.52629 2.06154 25
      vertex 2.49497 2.09497 15
      vertex 2.49497 2.09497 25
    endloop
  endfacet
  facet normal 0.729762 0.683701 0
    outer loop
      vertex 2.49497 2.09497 15
      vertex 2.52629 2.06154 25
      vertex 2.52629 2.06154 15
    endloop
  endfacet
  facet normal -0.935943 -0.352152 0
    outer loop
      vertex 1.35328 1.33212 15
      vertex 1.33715 1.37499 25
      vertex 1.33715 1.37499 15
    endloop
  endfacet
  facet normal -0.935943 -0.352152 0
    outer loop
      vertex 1.33715 1.37499 25
      vertex 1.35328 1.33212 15
      vertex 1.35328 1.33212 25
    endloop
  endfacet
  facet normal 0.849198 -0.528075 0
    outer loop
      vertex 2.58203 1.2111 25
      vertex 2.60622 1.25 15
      vertex 2.60622 1.25 25
    endloop
  endfacet
  facet normal 0.849198 -0.528075 0
    outer loop
      vertex 2.60622 1.25 15
      vertex 2.58203 1.2111 25
      vertex 2.58203 1.2111 15
    endloop
  endfacet
  facet normal -0.29031 0.956933 0
    outer loop
      vertex 1.81883 2.27615 15
      vertex 1.77499 2.26285 25
      vertex 1.81883 2.27615 25
    endloop
  endfacet
  facet normal -0.29031 0.956933 0
    outer loop
      vertex 1.77499 2.26285 25
      vertex 1.81883 2.27615 15
      vertex 1.77499 2.26285 15
    endloop
  endfacet
  facet normal -0.582497 0.812833 0
    outer loop
      vertex 1.6111 2.18203 15
      vertex 1.57387 2.15535 25
      vertex 1.6111 2.18203 25
    endloop
  endfacet
  facet normal -0.582497 0.812833 0
    outer loop
      vertex 1.57387 2.15535 25
      vertex 1.6111 2.18203 15
      vertex 1.57387 2.15535 15
    endloop
  endfacet
  facet normal 0.986646 -0.162876 0
    outer loop
      vertex 2.68655 1.46344 25
      vertex 2.69401 1.50863 15
      vertex 2.69401 1.50863 25
    endloop
  endfacet
  facet normal 0.986646 -0.162876 0
    outer loop
      vertex 2.69401 1.50863 15
      vertex 2.68655 1.46344 25
      vertex 2.68655 1.46344 15
    endloop
  endfacet
  facet normal 0.412742 -0.910848 0
    outer loop
      vertex 2.26788 0.953284 15
      vertex 2.3096 0.972189 25
      vertex 2.26788 0.953284 25
    endloop
  endfacet
  facet normal 0.412742 -0.910848 0
    outer loop
      vertex 2.3096 0.972189 25
      vertex 2.26788 0.953284 15
      vertex 2.3096 0.972189 15
    endloop
  endfacet
  facet normal -0.162919 -0.986639 0
    outer loop
      vertex 1.86344 0.91345 15
      vertex 1.90863 0.905988 25
      vertex 1.86344 0.91345 25
    endloop
  endfacet
  facet normal -0.162919 -0.986639 -0
    outer loop
      vertex 1.90863 0.905988 25
      vertex 1.86344 0.91345 15
      vertex 1.90863 0.905988 15
    endloop
  endfacet
  facet normal 0.812833 0.582497 0
    outer loop
      vertex 2.58203 1.9889 25
      vertex 2.55535 2.02613 15
      vertex 2.55535 2.02613 25
    endloop
  endfacet
  facet normal 0.812833 0.582497 0
    outer loop
      vertex 2.55535 2.02613 15
      vertex 2.58203 1.9889 25
      vertex 2.58203 1.9889 15
    endloop
  endfacet
  facet normal -0.999464 0.0327478 0
    outer loop
      vertex 1.3 1.6 15
      vertex 1.3015 1.64578 25
      vertex 1.3015 1.64578 15
    endloop
  endfacet
  facet normal -0.999464 0.0327478 0
    outer loop
      vertex 1.3015 1.64578 25
      vertex 1.3 1.6 15
      vertex 1.3 1.6 25
    endloop
  endfacet
  facet normal 0.412832 0.910807 -0
    outer loop
      vertex 2.3096 2.22781 15
      vertex 2.26788 2.24672 25
      vertex 2.3096 2.22781 25
    endloop
  endfacet
  facet normal 0.412832 0.910807 0
    outer loop
      vertex 2.26788 2.24672 25
      vertex 2.3096 2.22781 15
      vertex 2.26788 2.24672 15
    endloop
  endfacet
  facet normal -0.956933 0.29031 0
    outer loop
      vertex 1.32385 1.78117 15
      vertex 1.33715 1.82501 25
      vertex 1.33715 1.82501 15
    endloop
  endfacet
  facet normal -0.956933 0.29031 0
    outer loop
      vertex 1.33715 1.82501 25
      vertex 1.32385 1.78117 15
      vertex 1.32385 1.78117 25
    endloop
  endfacet
  facet normal 0.999464 0.0327478 0
    outer loop
      vertex 2.7 1.6 25
      vertex 2.6985 1.64578 15
      vertex 2.6985 1.64578 25
    endloop
  endfacet
  facet normal 0.999464 0.0327478 0
    outer loop
      vertex 2.6985 1.64578 15
      vertex 2.7 1.6 25
      vertex 2.7 1.6 15
    endloop
  endfacet
  facet normal 0.88196 0.471325 0
    outer loop
      vertex 2.62781 1.9096 25
      vertex 2.60622 1.95 15
      vertex 2.60622 1.95 25
    endloop
  endfacet
  facet normal 0.88196 0.471325 0
    outer loop
      vertex 2.60622 1.95 15
      vertex 2.62781 1.9096 25
      vertex 2.62781 1.9096 15
    endloop
  endfacet
  facet normal -0.729973 -0.683476 0
    outer loop
      vertex 1.50502 1.10502 15
      vertex 1.47371 1.13846 25
      vertex 1.47371 1.13846 15
    endloop
  endfacet
  facet normal -0.729973 -0.683476 0
    outer loop
      vertex 1.47371 1.13846 25
      vertex 1.50502 1.10502 15
      vertex 1.50502 1.10502 25
    endloop
  endfacet
  facet normal 0.973885 0.227043 0
    outer loop
      vertex 2.68655 1.73656 25
      vertex 2.67615 1.78117 15
      vertex 2.67615 1.78117 25
    endloop
  endfacet
  facet normal 0.973885 0.227043 0
    outer loop
      vertex 2.67615 1.78117 15
      vertex 2.68655 1.73656 25
      vertex 2.68655 1.73656 15
    endloop
  endfacet
  facet normal -0.528075 0.849198 0
    outer loop
      vertex 1.65 2.20622 15
      vertex 1.6111 2.18203 25
      vertex 1.65 2.20622 25
    endloop
  endfacet
  facet normal -0.528075 0.849198 0
    outer loop
      vertex 1.6111 2.18203 25
      vertex 1.65 2.20622 15
      vertex 1.6111 2.18203 15
    endloop
  endfacet
  facet normal -0.582497 -0.812833 0
    outer loop
      vertex 1.57387 1.04465 15
      vertex 1.6111 1.01797 25
      vertex 1.57387 1.04465 25
    endloop
  endfacet
  facet normal -0.582497 -0.812833 -0
    outer loop
      vertex 1.6111 1.01797 25
      vertex 1.57387 1.04465 15
      vertex 1.6111 1.01797 15
    endloop
  endfacet
  facet normal 0.0980123 -0.995185 0
    outer loop
      vertex 2.04578 0.901498 15
      vertex 2.09137 0.905988 25
      vertex 2.04578 0.901498 25
    endloop
  endfacet
  facet normal 0.0980123 -0.995185 0
    outer loop
      vertex 2.09137 0.905988 25
      vertex 2.04578 0.901498 15
      vertex 2.09137 0.905988 15
    endloop
  endfacet
  facet normal -0.773013 -0.63439 0
    outer loop
      vertex 1.47371 1.13846 15
      vertex 1.44465 1.17387 25
      vertex 1.44465 1.17387 15
    endloop
  endfacet
  facet normal -0.773013 -0.63439 0
    outer loop
      vertex 1.44465 1.17387 25
      vertex 1.47371 1.13846 15
      vertex 1.47371 1.13846 25
    endloop
  endfacet
  facet normal 0.0327478 0.999464 -0
    outer loop
      vertex 2.04578 2.2985 15
      vertex 2 2.3 25
      vertex 2.04578 2.2985 25
    endloop
  endfacet
  facet normal 0.0327478 0.999464 0
    outer loop
      vertex 2 2.3 25
      vertex 2.04578 2.2985 15
      vertex 2 2.3 15
    endloop
  endfacet
  facet normal 0.582497 0.812833 -0
    outer loop
      vertex 2.42613 2.15535 15
      vertex 2.3889 2.18203 25
      vertex 2.42613 2.15535 25
    endloop
  endfacet
  facet normal 0.582497 0.812833 0
    outer loop
      vertex 2.3889 2.18203 25
      vertex 2.42613 2.15535 15
      vertex 2.3889 2.18203 15
    endloop
  endfacet
  facet normal -0.0980123 -0.995185 0
    outer loop
      vertex 1.90863 0.905988 15
      vertex 1.95422 0.901498 25
      vertex 1.90863 0.905988 25
    endloop
  endfacet
  facet normal -0.0980123 -0.995185 -0
    outer loop
      vertex 1.95422 0.901498 25
      vertex 1.90863 0.905988 15
      vertex 1.95422 0.901498 15
    endloop
  endfacet
  facet normal 0.910807 0.412832 0
    outer loop
      vertex 2.64672 1.86788 25
      vertex 2.62781 1.9096 15
      vertex 2.62781 1.9096 25
    endloop
  endfacet
  facet normal 0.910807 0.412832 0
    outer loop
      vertex 2.62781 1.9096 15
      vertex 2.64672 1.86788 25
      vertex 2.64672 1.86788 15
    endloop
  endfacet
  facet normal 0.471325 0.88196 -0
    outer loop
      vertex 2.35 2.20622 15
      vertex 2.3096 2.22781 25
      vertex 2.35 2.20622 25
    endloop
  endfacet
  facet normal 0.471325 0.88196 0
    outer loop
      vertex 2.3096 2.22781 25
      vertex 2.35 2.20622 15
      vertex 2.3096 2.22781 15
    endloop
  endfacet
  facet normal 0.849198 0.528075 0
    outer loop
      vertex 2.60622 1.95 25
      vertex 2.58203 1.9889 15
      vertex 2.58203 1.9889 25
    endloop
  endfacet
  facet normal 0.849198 0.528075 0
    outer loop
      vertex 2.58203 1.9889 15
      vertex 2.60622 1.95 25
      vertex 2.60622 1.95 15
    endloop
  endfacet
  facet normal 0.352152 0.935943 -0
    outer loop
      vertex 2.26788 2.24672 15
      vertex 2.22501 2.26285 25
      vertex 2.26788 2.24672 25
    endloop
  endfacet
  facet normal 0.352152 0.935943 0
    outer loop
      vertex 2.22501 2.26285 25
      vertex 2.26788 2.24672 15
      vertex 2.22501 2.26285 15
    endloop
  endfacet
  facet normal 0.910807 -0.412832 0
    outer loop
      vertex 2.62781 1.2904 25
      vertex 2.64672 1.33212 15
      vertex 2.64672 1.33212 25
    endloop
  endfacet
  facet normal 0.910807 -0.412832 0
    outer loop
      vertex 2.64672 1.33212 15
      vertex 2.62781 1.2904 25
      vertex 2.62781 1.2904 15
    endloop
  endfacet
  facet normal 0.999464 -0.0327478 0
    outer loop
      vertex 2.6985 1.55422 25
      vertex 2.7 1.6 15
      vertex 2.7 1.6 25
    endloop
  endfacet
  facet normal 0.999464 -0.0327478 0
    outer loop
      vertex 2.7 1.6 15
      vertex 2.6985 1.55422 25
      vertex 2.6985 1.55422 15
    endloop
  endfacet
  facet normal 0.812833 -0.582497 0
    outer loop
      vertex 2.55535 1.17387 25
      vertex 2.58203 1.2111 15
      vertex 2.58203 1.2111 25
    endloop
  endfacet
  facet normal 0.812833 -0.582497 0
    outer loop
      vertex 2.58203 1.2111 15
      vertex 2.55535 1.17387 25
      vertex 2.55535 1.17387 15
    endloop
  endfacet
  facet normal 0.352267 -0.9359 0
    outer loop
      vertex 2.22501 0.937148 15
      vertex 2.26788 0.953284 25
      vertex 2.22501 0.937148 25
    endloop
  endfacet
  facet normal 0.352267 -0.9359 0
    outer loop
      vertex 2.26788 0.953284 25
      vertex 2.22501 0.937148 15
      vertex 2.26788 0.953284 15
    endloop
  endfacet
  facet normal 0 0 1
    outer loop
      vertex 2.6985 1.64578 25
      vertex 2.6985 1.55422 25
      vertex 2.7 1.6 25
    endloop
  endfacet
  facet normal 0 0 1
    outer loop
      vertex 2.69401 1.69137 25
      vertex 2.6985 1.55422 25
      vertex 2.6985 1.64578 25
    endloop
  endfacet
  facet normal 0 0 1
    outer loop
      vertex 2.69401 1.69137 25
      vertex 2.69401 1.50863 25
      vertex 2.6985 1.55422 25
    endloop
  endfacet
  facet normal 0 0 1
    outer loop
      vertex 2.68655 1.73656 25
      vertex 2.69401 1.50863 25
      vertex 2.69401 1.69137 25
    endloop
  endfacet
  facet normal 0 0 1
    outer loop
      vertex 2.68655 1.73656 25
      vertex 2.68655 1.46344 25
      vertex 2.69401 1.50863 25
    endloop
  endfacet
  facet normal 0 0 1
    outer loop
      vertex 2.67615 1.78117 25
      vertex 2.68655 1.46344 25
      vertex 2.68655 1.73656 25
    endloop
  endfacet
  facet normal 0 0 1
    outer loop
      vertex 2.67615 1.78117 25
      vertex 2.67615 1.41883 25
      vertex 2.68655 1.46344 25
    endloop
  endfacet
  facet normal 0 0 1
    outer loop
      vertex 2.66285 1.82501 25
      vertex 2.67615 1.41883 25
      vertex 2.67615 1.78117 25
    endloop
  endfacet
  facet normal 0 0 1
    outer loop
      vertex 2.66285 1.82501 25
      vertex 2.66285 1.37499 25
      vertex 2.67615 1.41883 25
    endloop
  endfacet
  facet normal 0 0 1
    outer loop
      vertex 2.64672 1.86788 25
      vertex 2.66285 1.37499 25
      vertex 2.66285 1.82501 25
    endloop
  endfacet
  facet normal 0 0 1
    outer loop
      vertex 2.64672 1.86788 25
      vertex 2.64672 1.33212 25
      vertex 2.66285 1.37499 25
    endloop
  endfacet
  facet normal 0 0 1
    outer loop
      vertex 2.62781 1.9096 25
      vertex 2.64672 1.33212 25
      vertex 2.64672 1.86788 25
    endloop
  endfacet
  facet normal 0 0 1
    outer loop
      vertex 2.62781 1.9096 25
      vertex 2.62781 1.2904 25
      vertex 2.64672 1.33212 25
    endloop
  endfacet
  facet normal 0 0 1
    outer loop
      vertex 2.60622 1.95 25
      vertex 2.62781 1.2904 25
      vertex 2.62781 1.9096 25
    endloop
  endfacet
  facet normal 0 0 1
    outer loop
      vertex 2.60622 1.95 25
      vertex 2.60622 1.25 25
      vertex 2.62781 1.2904 25
    endloop
  endfacet
  facet normal 0 0 1
    outer loop
      vertex 2.58203 1.9889 25
      vertex 2.60622 1.25 25
      vertex 2.60622 1.95 25
    endloop
  endfacet
  facet normal 0 0 1
    outer loop
      vertex 2.58203 1.9889 25
      vertex 2.58203 1.2111 25
      vertex 2.60622 1.25 25
    endloop
  endfacet
  facet normal 0 0 1
    outer loop
      vertex 2.55535 2.02613 25
      vertex 2.58203 1.2111 25
      vertex 2.58203 1.9889 25
    endloop
  endfacet
  facet normal 0 0 1
    outer loop
      vertex 2.55535 2.02613 25
      vertex 2.55535 1.17387 25
      vertex 2.58203 1.2111 25
    endloop
  endfacet
  facet normal 0 0 1
    outer loop
      vertex 2.52629 2.06154 25
      vertex 2.55535 1.17387 25
      vertex 2.55535 2.02613 25
    endloop
  endfacet
  facet normal 0 0 1
    outer loop
      vertex 2.52629 2.06154 25
      vertex 2.52629 1.13846 25
      vertex 2.55535 1.17387 25
    endloop
  endfacet
  facet normal 0 0 1
    outer loop
      vertex 2.49497 2.09497 25
      vertex 2.52629 1.13846 25
      vertex 2.52629 2.06154 25
    endloop
  endfacet
  facet normal 0 0 1
    outer loop
      vertex 2.49497 2.09497 25
      vertex 2.49497 1.10502 25
      vertex 2.52629 1.13846 25
    endloop
  endfacet
  facet normal 0 0 1
    outer loop
      vertex 2.46154 2.12629 25
      vertex 2.49497 1.10502 25
      vertex 2.49497 2.09497 25
    endloop
  endfacet
  facet normal 0 0 1
    outer loop
      vertex 2.46154 2.12629 25
      vertex 2.46154 1.07371 25
      vertex 2.49497 1.10502 25
    endloop
  endfacet
  facet normal 0 0 1
    outer loop
      vertex 2.42613 2.15535 25
      vertex 2.46154 1.07371 25
      vertex 2.46154 2.12629 25
    endloop
  endfacet
  facet normal 0 0 1
    outer loop
      vertex 2.42613 2.15535 25
      vertex 2.42613 1.04465 25
      vertex 2.46154 1.07371 25
    endloop
  endfacet
  facet normal 0 0 1
    outer loop
      vertex 2.3889 2.18203 25
      vertex 2.42613 1.04465 25
      vertex 2.42613 2.15535 25
    endloop
  endfacet
  facet normal 0 0 1
    outer loop
      vertex 2.3889 2.18203 25
      vertex 2.3889 1.01797 25
      vertex 2.42613 1.04465 25
    endloop
  endfacet
  facet normal 0 0 1
    outer loop
      vertex 2.35 2.20622 25
      vertex 2.3889 1.01797 25
      vertex 2.3889 2.18203 25
    endloop
  endfacet
  facet normal 0 0 1
    outer loop
      vertex 2.35 2.20622 25
      vertex 2.35 0.993782 25
      vertex 2.3889 1.01797 25
    endloop
  endfacet
  facet normal 0 0 1
    outer loop
      vertex 2.3096 2.22781 25
      vertex 2.35 0.993782 25
      vertex 2.35 2.20622 25
    endloop
  endfacet
  facet normal 0 0 1
    outer loop
      vertex 2.3096 2.22781 25
      vertex 2.3096 0.972189 25
      vertex 2.35 0.993782 25
    endloop
  endfacet
  facet normal 0 0 1
    outer loop
      vertex 2.26788 2.24672 25
      vertex 2.3096 0.972189 25
      vertex 2.3096 2.22781 25
    endloop
  endfacet
  facet normal 0 0 1
    outer loop
      vertex 2.26788 2.24672 25
      vertex 2.26788 0.953284 25
      vertex 2.3096 0.972189 25
    endloop
  endfacet
  facet normal 0 0 1
    outer loop
      vertex 2.22501 2.26285 25
      vertex 2.26788 0.953284 25
      vertex 2.26788 2.24672 25
    endloop
  endfacet
  facet normal 0 0 1
    outer loop
      vertex 2.22501 2.26285 25
      vertex 2.22501 0.937148 25
      vertex 2.26788 0.953284 25
    endloop
  endfacet
  facet normal 0 0 1
    outer loop
      vertex 2.18117 2.27615 25
      vertex 2.22501 0.937148 25
      vertex 2.22501 2.26285 25
    endloop
  endfacet
  facet normal 0 0 1
    outer loop
      vertex 2.18117 2.27615 25
      vertex 2.18117 0.923851 25
      vertex 2.22501 0.937148 25
    endloop
  endfacet
  facet normal 0 0 1
    outer loop
      vertex 2.13656 2.28655 25
      vertex 2.18117 0.923851 25
      vertex 2.18117 2.27615 25
    endloop
  endfacet
  facet normal 0 0 1
    outer loop
      vertex 2.13656 2.28655 25
      vertex 2.13656 0.91345 25
      vertex 2.18117 0.923851 25
    endloop
  endfacet
  facet normal 0 0 1
    outer loop
      vertex 2.09137 2.29401 25
      vertex 2.13656 0.91345 25
      vertex 2.13656 2.28655 25
    endloop
  endfacet
  facet normal 0 0 1
    outer loop
      vertex 2.09137 2.29401 25
      vertex 2.09137 0.905988 25
      vertex 2.13656 0.91345 25
    endloop
  endfacet
  facet normal 0 0 1
    outer loop
      vertex 2.04578 2.2985 25
      vertex 2.09137 0.905988 25
      vertex 2.09137 2.29401 25
    endloop
  endfacet
  facet normal 0 0 1
    outer loop
      vertex 2.04578 2.2985 25
      vertex 2.04578 0.901498 25
      vertex 2.09137 0.905988 25
    endloop
  endfacet
  facet normal 0 0 1
    outer loop
      vertex 2 2.3 25
      vertex 2.04578 0.901498 25
      vertex 2.04578 2.2985 25
    endloop
  endfacet
  facet normal 0 0 1
    outer loop
      vertex 2 2.3 25
      vertex 2 0.9 25
      vertex 2.04578 0.901498 25
    endloop
  endfacet
  facet normal -0 0 1
    outer loop
      vertex 1.95422 2.2985 25
      vertex 2 0.9 25
      vertex 2 2.3 25
    endloop
  endfacet
  facet normal 0 0 1
    outer loop
      vertex 1.95422 2.2985 25
      vertex 1.95422 0.901498 25
      vertex 2 0.9 25
    endloop
  endfacet
  facet normal -0 0 1
    outer loop
      vertex 1.90863 2.29401 25
      vertex 1.95422 0.901498 25
      vertex 1.95422 2.2985 25
    endloop
  endfacet
  facet normal 0 0 1
    outer loop
      vertex 1.90863 2.29401 25
      vertex 1.90863 0.905988 25
      vertex 1.95422 0.901498 25
    endloop
  endfacet
  facet normal -0 0 1
    outer loop
      vertex 1.86344 2.28655 25
      vertex 1.90863 0.905988 25
      vertex 1.90863 2.29401 25
    endloop
  endfacet
  facet normal 0 0 1
    outer loop
      vertex 1.86344 2.28655 25
      vertex 1.86344 0.91345 25
      vertex 1.90863 0.905988 25
    endloop
  endfacet
  facet normal -0 0 1
    outer loop
      vertex 1.81883 2.27615 25
      vertex 1.86344 0.91345 25
      vertex 1.86344 2.28655 25
    endloop
  endfacet
  facet normal 0 0 1
    outer loop
      vertex 1.81883 2.27615 25
      vertex 1.81883 0.923851 25
      vertex 1.86344 0.91345 25
    endloop
  endfacet
  facet normal -0 0 1
    outer loop
      vertex 1.77499 2.26285 25
      vertex 1.81883 0.923851 25
      vertex 1.81883 2.27615 25
    endloop
  endfacet
  facet normal 0 0 1
    outer loop
      vertex 1.77499 2.26285 25
      vertex 1.77499 0.937148 25
      vertex 1.81883 0.923851 25
    endloop
  endfacet
  facet normal -0 0 1
    outer loop
      vertex 1.73212 2.24672 25
      vertex 1.77499 0.937148 25
      vertex 1.77499 2.26285 25
    endloop
  endfacet
  facet normal 0 0 1
    outer loop
      vertex 1.73212 2.24672 25
      vertex 1.73212 0.953284 25
      vertex 1.77499 0.937148 25
    endloop
  endfacet
  facet normal -0 0 1
    outer loop
      vertex 1.6904 2.22781 25
      vertex 1.73212 0.953284 25
      vertex 1.73212 2.24672 25
    endloop
  endfacet
  facet normal 0 0 1
    outer loop
      vertex 1.6904 2.22781 25
      vertex 1.6904 0.972189 25
      vertex 1.73212 0.953284 25
    endloop
  endfacet
  facet normal -0 0 1
    outer loop
      vertex 1.65 2.20622 25
      vertex 1.6904 0.972189 25
      vertex 1.6904 2.22781 25
    endloop
  endfacet
  facet normal 0 0 1
    outer loop
      vertex 1.65 2.20622 25
      vertex 1.65 0.993782 25
      vertex 1.6904 0.972189 25
    endloop
  endfacet
  facet normal -0 0 1
    outer loop
      vertex 1.6111 2.18203 25
      vertex 1.65 0.993782 25
      vertex 1.65 2.20622 25
    endloop
  endfacet
  facet normal 0 0 1
    outer loop
      vertex 1.6111 2.18203 25
      vertex 1.6111 1.01797 25
      vertex 1.65 0.993782 25
    endloop
  endfacet
  facet normal -0 0 1
    outer loop
      vertex 1.57387 2.15535 25
      vertex 1.6111 1.01797 25
      vertex 1.6111 2.18203 25
    endloop
  endfacet
  facet normal 0 0 1
    outer loop
      vertex 1.57387 2.15535 25
      vertex 1.57387 1.04465 25
      vertex 1.6111 1.01797 25
    endloop
  endfacet
  facet normal -0 0 1
    outer loop
      vertex 1.53846 2.12629 25
      vertex 1.57387 1.04465 25
      vertex 1.57387 2.15535 25
    endloop
  endfacet
  facet normal 0 0 1
    outer loop
      vertex 1.53846 2.12629 25
      vertex 1.53846 1.07371 25
      vertex 1.57387 1.04465 25
    endloop
  endfacet
  facet normal -0 0 1
    outer loop
      vertex 1.50502 2.09497 25
      vertex 1.53846 1.07371 25
      vertex 1.53846 2.12629 25
    endloop
  endfacet
  facet normal 0 0 1
    outer loop
      vertex 1.50502 2.09497 25
      vertex 1.50502 1.10502 25
      vertex 1.53846 1.07371 25
    endloop
  endfacet
  facet normal -0 0 1
    outer loop
      vertex 1.47371 2.06154 25
      vertex 1.50502 1.10502 25
      vertex 1.50502 2.09497 25
    endloop
  endfacet
  facet normal 0 0 1
    outer loop
      vertex 1.47371 2.06154 25
      vertex 1.47371 1.13846 25
      vertex 1.50502 1.10502 25
    endloop
  endfacet
  facet normal -0 0 1
    outer loop
      vertex 1.44465 2.02613 25
      vertex 1.47371 1.13846 25
      vertex 1.47371 2.06154 25
    endloop
  endfacet
  facet normal 0 0 1
    outer loop
      vertex 1.44465 2.02613 25
      vertex 1.44465 1.17387 25
      vertex 1.47371 1.13846 25
    endloop
  endfacet
  facet normal -0 0 1
    outer loop
      vertex 1.41797 1.9889 25
      vertex 1.44465 1.17387 25
      vertex 1.44465 2.02613 25
    endloop
  endfacet
  facet normal 0 0 1
    outer loop
      vertex 1.41797 1.9889 25
      vertex 1.41797 1.2111 25
      vertex 1.44465 1.17387 25
    endloop
  endfacet
  facet normal -0 0 1
    outer loop
      vertex 1.39378 1.95 25
      vertex 1.41797 1.2111 25
      vertex 1.41797 1.9889 25
    endloop
  endfacet
  facet normal 0 0 1
    outer loop
      vertex 1.39378 1.95 25
      vertex 1.39378 1.25 25
      vertex 1.41797 1.2111 25
    endloop
  endfacet
  facet normal -0 0 1
    outer loop
      vertex 1.37219 1.9096 25
      vertex 1.39378 1.25 25
      vertex 1.39378 1.95 25
    endloop
  endfacet
  facet normal 0 0 1
    outer loop
      vertex 1.37219 1.9096 25
      vertex 1.37219 1.2904 25
      vertex 1.39378 1.25 25
    endloop
  endfacet
  facet normal -0 0 1
    outer loop
      vertex 1.35328 1.86788 25
      vertex 1.37219 1.2904 25
      vertex 1.37219 1.9096 25
    endloop
  endfacet
  facet normal 0 0 1
    outer loop
      vertex 1.35328 1.86788 25
      vertex 1.35328 1.33212 25
      vertex 1.37219 1.2904 25
    endloop
  endfacet
  facet normal -0 0 1
    outer loop
      vertex 1.33715 1.82501 25
      vertex 1.35328 1.33212 25
      vertex 1.35328 1.86788 25
    endloop
  endfacet
  facet normal 0 0 1
    outer loop
      vertex 1.33715 1.82501 25
      vertex 1.33715 1.37499 25
      vertex 1.35328 1.33212 25
    endloop
  endfacet
  facet normal -0 0 1
    outer loop
      vertex 1.32385 1.78117 25
      vertex 1.33715 1.37499 25
      vertex 1.33715 1.82501 25
    endloop
  endfacet
  facet normal 0 0 1
    outer loop
      vertex 1.32385 1.78117 25
      vertex 1.32385 1.41883 25
      vertex 1.33715 1.37499 25
    endloop
  endfacet
  facet normal -0 0 1
    outer loop
      vertex 1.31345 1.73656 25
      vertex 1.32385 1.41883 25
      vertex 1.32385 1.78117 25
    endloop
  endfacet
  facet normal 0 0 1
    outer loop
      vertex 1.31345 1.73656 25
      vertex 1.31345 1.46344 25
      vertex 1.32385 1.41883 25
    endloop
  endfacet
  facet normal -0 0 1
    outer loop
      vertex 1.30599 1.69137 25
      vertex 1.31345 1.46344 25
      vertex 1.31345 1.73656 25
    endloop
  endfacet
  facet normal 0 0 1
    outer loop
      vertex 1.30599 1.69137 25
      vertex 1.30599 1.50863 25
      vertex 1.31345 1.46344 25
    endloop
  endfacet
  facet normal -0 0 1
    outer loop
      vertex 1.3015 1.64578 25
      vertex 1.30599 1.50863 25
      vertex 1.30599 1.69137 25
    endloop
  endfacet
  facet normal 0 0 1
    outer loop
      vertex 1.3015 1.64578 25
      vertex 1.3015 1.55422 25
      vertex 1.30599 1.50863 25
    endloop
  endfacet
  facet normal 0 -0 1
    outer loop
      vertex 1.3015 1.55422 25
      vertex 1.3015 1.64578 25
      vertex 1.3 1.6 25
    endloop
  endfacet
  facet normal 0.528075 0.849198 -0
    outer loop
      vertex 2.3889 2.18203 15
      vertex 2.35 2.20622 25
      vertex 2.3889 2.18203 25
    endloop
  endfacet
  facet normal 0.528075 0.849198 0
    outer loop
      vertex 2.35 2.20622 25
      vertex 2.3889 2.18203 15
      vertex 2.35 2.20622 15
    endloop
  endfacet
  facet normal 0.935943 -0.352152 0
    outer loop
      vertex 2.64672 1.33212 25
      vertex 2.66285 1.37499 15
      vertex 2.66285 1.37499 25
    endloop
  endfacet
  facet normal 0.935943 -0.352152 0
    outer loop
      vertex 2.66285 1.37499 15
      vertex 2.64672 1.33212 25
      vertex 2.64672 1.33212 15
    endloop
  endfacet
  facet normal 0.227064 -0.97388 0
    outer loop
      vertex 2.13656 0.91345 15
      vertex 2.18117 0.923851 25
      vertex 2.13656 0.91345 25
    endloop
  endfacet
  facet normal 0.227064 -0.97388 0
    outer loop
      vertex 2.18117 0.923851 25
      vertex 2.13656 0.91345 15
      vertex 2.18117 0.923851 15
    endloop
  endfacet
  facet normal 0.0327042 -0.999465 0
    outer loop
      vertex 2 0.9 15
      vertex 2.04578 0.901498 25
      vertex 2 0.9 25
    endloop
  endfacet
  facet normal 0.0327042 -0.999465 0
    outer loop
      vertex 2.04578 0.901498 25
      vertex 2 0.9 15
      vertex 2.04578 0.901498 15
    endloop
  endfacet
  facet normal 0.995185 0.0980123 0
    outer loop
      vertex 2.6985 1.64578 25
      vertex 2.69401 1.69137 15
      vertex 2.69401 1.69137 25
    endloop
  endfacet
  facet normal 0.995185 0.0980123 0
    outer loop
      vertex 2.69401 1.69137 15
      vertex 2.6985 1.64578 25
      vertex 2.6985 1.64578 15
    endloop
  endfacet
  facet normal 0.986646 0.162876 0
    outer loop
      vertex 2.69401 1.69137 25
      vertex 2.68655 1.73656 15
      vertex 2.68655 1.73656 25
    endloop
  endfacet
  facet normal 0.986646 0.162876 0
    outer loop
      vertex 2.68655 1.73656 15
      vertex 2.69401 1.69137 25
      vertex 2.69401 1.69137 15
    endloop
  endfacet
  facet normal -0.683593 0.729864 0
    outer loop
      vertex 1.53846 2.12629 15
      vertex 1.50502 2.09497 25
      vertex 1.53846 2.12629 25
    endloop
  endfacet
  facet normal -0.683593 0.729864 0
    outer loop
      vertex 1.50502 2.09497 25
      vertex 1.53846 2.12629 15
      vertex 1.50502 2.09497 15
    endloop
  endfacet
  facet normal 0.956933 0.29031 0
    outer loop
      vertex 2.67615 1.78117 25
      vertex 2.66285 1.82501 15
      vertex 2.66285 1.82501 25
    endloop
  endfacet
  facet normal 0.956933 0.29031 0
    outer loop
      vertex 2.66285 1.82501 15
      vertex 2.67615 1.78117 25
      vertex 2.67615 1.78117 15
    endloop
  endfacet
  facet normal -0.412832 0.910807 0
    outer loop
      vertex 1.73212 2.24672 15
      vertex 1.6904 2.22781 25
      vertex 1.73212 2.24672 25
    endloop
  endfacet
  facet normal -0.412832 0.910807 0
    outer loop
      vertex 1.6904 2.22781 25
      vertex 1.73212 2.24672 15
      vertex 1.6904 2.22781 15
    endloop
  endfacet
  facet normal 0.29025 -0.956951 0
    outer loop
      vertex 2.18117 0.923851 15
      vertex 2.22501 0.937148 25
      vertex 2.18117 0.923851 25
    endloop
  endfacet
  facet normal 0.29025 -0.956951 0
    outer loop
      vertex 2.22501 0.937148 25
      vertex 2.18117 0.923851 15
      vertex 2.22501 0.937148 15
    endloop
  endfacet
  facet normal 0.227043 0.973885 -0
    outer loop
      vertex 2.18117 2.27615 15
      vertex 2.13656 2.28655 25
      vertex 2.18117 2.27615 25
    endloop
  endfacet
  facet normal 0.227043 0.973885 0
    outer loop
      vertex 2.13656 2.28655 25
      vertex 2.18117 2.27615 15
      vertex 2.13656 2.28655 15
    endloop
  endfacet
  facet normal -0.986646 0.162876 0
    outer loop
      vertex 1.30599 1.69137 15
      vertex 1.31345 1.73656 25
      vertex 1.31345 1.73656 15
    endloop
  endfacet
  facet normal -0.986646 0.162876 0
    outer loop
      vertex 1.31345 1.73656 25
      vertex 1.30599 1.69137 15
      vertex 1.30599 1.69137 25
    endloop
  endfacet
  facet normal 0.29031 0.956933 -0
    outer loop
      vertex 2.22501 2.26285 15
      vertex 2.18117 2.27615 25
      vertex 2.22501 2.26285 25
    endloop
  endfacet
  facet normal 0.29031 0.956933 0
    outer loop
      vertex 2.18117 2.27615 25
      vertex 2.22501 2.26285 15
      vertex 2.18117 2.27615 15
    endloop
  endfacet
  facet normal -0.63439 0.773013 0
    outer loop
      vertex 1.57387 2.15535 15
      vertex 1.53846 2.12629 25
      vertex 1.57387 2.15535 25
    endloop
  endfacet
  facet normal -0.63439 0.773013 0
    outer loop
      vertex 1.53846 2.12629 25
      vertex 1.57387 2.15535 15
      vertex 1.53846 2.12629 15
    endloop
  endfacet
  facet normal -0.0327042 -0.999465 0
    outer loop
      vertex 1.95422 0.901498 15
      vertex 2 0.9 25
      vertex 1.95422 0.901498 25
    endloop
  endfacet
  facet normal -0.0327042 -0.999465 -0
    outer loop
      vertex 2 0.9 25
      vertex 1.95422 0.901498 15
      vertex 2 0.9 15
    endloop
  endfacet
  facet normal 0.63439 0.773013 -0
    outer loop
      vertex 2.46154 2.12629 15
      vertex 2.42613 2.15535 25
      vertex 2.46154 2.12629 25
    endloop
  endfacet
  facet normal 0.63439 0.773013 0
    outer loop
      vertex 2.42613 2.15535 25
      vertex 2.46154 2.12629 15
      vertex 2.42613 2.15535 15
    endloop
  endfacet
  facet normal -0.0327478 0.999464 0
    outer loop
      vertex 2 2.3 15
      vertex 1.95422 2.2985 25
      vertex 2 2.3 25
    endloop
  endfacet
  facet normal -0.0327478 0.999464 0
    outer loop
      vertex 1.95422 2.2985 25
      vertex 2 2.3 15
      vertex 1.95422 2.2985 15
    endloop
  endfacet
  facet normal 0.995185 -0.0980123 0
    outer loop
      vertex 2.69401 1.50863 25
      vertex 2.6985 1.55422 15
      vertex 2.6985 1.55422 25
    endloop
  endfacet
  facet normal 0.995185 -0.0980123 0
    outer loop
      vertex 2.6985 1.55422 15
      vertex 2.69401 1.50863 25
      vertex 2.69401 1.50863 15
    endloop
  endfacet
  facet normal 0.773013 -0.63439 0
    outer loop
      vertex 2.52629 1.13846 25
      vertex 2.55535 1.17387 15
      vertex 2.55535 1.17387 25
    endloop
  endfacet
  facet normal 0.773013 -0.63439 0
    outer loop
      vertex 2.55535 1.17387 15
      vertex 2.52629 1.13846 25
      vertex 2.52629 1.13846 15
    endloop
  endfacet
  facet normal -0.471325 0.88196 0
    outer loop
      vertex 1.6904 2.22781 15
      vertex 1.65 2.20622 25
      vertex 1.6904 2.22781 25
    endloop
  endfacet
  facet normal -0.471325 0.88196 0
    outer loop
      vertex 1.65 2.20622 25
      vertex 1.6904 2.22781 15
      vertex 1.65 2.20622 15
    endloop
  endfacet
  facet normal -0.162876 0.986646 0
    outer loop
      vertex 1.90863 2.29401 15
      vertex 1.86344 2.28655 25
      vertex 1.90863 2.29401 25
    endloop
  endfacet
  facet normal -0.162876 0.986646 0
    outer loop
      vertex 1.86344 2.28655 25
      vertex 1.90863 2.29401 15
      vertex 1.86344 2.28655 15
    endloop
  endfacet
  facet normal 0.729864 -0.683593 0
    outer loop
      vertex 2.49497 1.10502 25
      vertex 2.52629 1.13846 15
      vertex 2.52629 1.13846 25
    endloop
  endfacet
  facet normal 0.729864 -0.683593 0
    outer loop
      vertex 2.52629 1.13846 15
      vertex 2.49497 1.10502 25
      vertex 2.49497 1.10502 15
    endloop
  endfacet
  facet normal 0.162919 -0.986639 0
    outer loop
      vertex 2.09137 0.905988 15
      vertex 2.13656 0.91345 25
      vertex 2.09137 0.905988 25
    endloop
  endfacet
  facet normal 0.162919 -0.986639 0
    outer loop
      vertex 2.13656 0.91345 25
      vertex 2.09137 0.905988 15
      vertex 2.13656 0.91345 15
    endloop
  endfacet
  facet normal 0.471376 -0.881933 0
    outer loop
      vertex 2.3096 0.972189 15
      vertex 2.35 0.993782 25
      vertex 2.3096 0.972189 25
    endloop
  endfacet
  facet normal 0.471376 -0.881933 0
    outer loop
      vertex 2.35 0.993782 25
      vertex 2.3096 0.972189 15
      vertex 2.35 0.993782 15
    endloop
  endfacet
  facet normal -0.812833 0.582497 0
    outer loop
      vertex 1.41797 1.9889 15
      vertex 1.44465 2.02613 25
      vertex 1.44465 2.02613 15
    endloop
  endfacet
  facet normal -0.812833 0.582497 0
    outer loop
      vertex 1.44465 2.02613 25
      vertex 1.41797 1.9889 15
      vertex 1.41797 1.9889 25
    endloop
  endfacet
  facet normal 0.0980123 0.995185 -0
    outer loop
      vertex 2.09137 2.29401 15
      vertex 2.04578 2.2985 25
      vertex 2.09137 2.29401 25
    endloop
  endfacet
  facet normal 0.0980123 0.995185 0
    outer loop
      vertex 2.04578 2.2985 25
      vertex 2.09137 2.29401 15
      vertex 2.04578 2.2985 15
    endloop
  endfacet
  facet normal 0.88196 -0.471325 0
    outer loop
      vertex 2.60622 1.25 25
      vertex 2.62781 1.2904 15
      vertex 2.62781 1.2904 25
    endloop
  endfacet
  facet normal 0.88196 -0.471325 0
    outer loop
      vertex 2.62781 1.2904 15
      vertex 2.60622 1.25 25
      vertex 2.60622 1.25 15
    endloop
  endfacet
  facet normal 0.683701 0.729762 -0
    outer loop
      vertex 2.49497 2.09497 15
      vertex 2.46154 2.12629 25
      vertex 2.49497 2.09497 25
    endloop
  endfacet
  facet normal 0.683701 0.729762 0
    outer loop
      vertex 2.46154 2.12629 25
      vertex 2.49497 2.09497 15
      vertex 2.46154 2.12629 15
    endloop
  endfacet
  facet normal 0.162876 0.986646 -0
    outer loop
      vertex 2.13656 2.28655 15
      vertex 2.09137 2.29401 25
      vertex 2.13656 2.28655 25
    endloop
  endfacet
  facet normal 0.162876 0.986646 0
    outer loop
      vertex 2.09137 2.29401 25
      vertex 2.13656 2.28655 15
      vertex 2.09137 2.29401 15
    endloop
  endfacet
  facet normal -0.812833 -0.582497 0
    outer loop
      vertex 1.44465 1.17387 15
      vertex 1.41797 1.2111 25
      vertex 1.41797 1.2111 15
    endloop
  endfacet
  facet normal -0.812833 -0.582497 0
    outer loop
      vertex 1.41797 1.2111 25
      vertex 1.44465 1.17387 15
      vertex 1.44465 1.17387 25
    endloop
  endfacet
  facet normal -0.63439 -0.773013 0
    outer loop
      vertex 1.53846 1.07371 15
      vertex 1.57387 1.04465 25
      vertex 1.53846 1.07371 25
    endloop
  endfacet
  facet normal -0.63439 -0.773013 -0
    outer loop
      vertex 1.57387 1.04465 25
      vertex 1.53846 1.07371 15
      vertex 1.57387 1.04465 15
    endloop
  endfacet
  facet normal -0.973885 -0.227043 0
    outer loop
      vertex 1.32385 1.41883 15
      vertex 1.31345 1.46344 25
      vertex 1.31345 1.46344 15
    endloop
  endfacet
  facet normal -0.973885 -0.227043 0
    outer loop
      vertex 1.31345 1.46344 25
      vertex 1.32385 1.41883 15
      vertex 1.32385 1.41883 25
    endloop
  endfacet
  facet normal 0.935943 0.352152 0
    outer loop
      vertex 2.66285 1.82501 25
      vertex 2.64672 1.86788 15
      vertex 2.64672 1.86788 25
    endloop
  endfacet
  facet normal 0.935943 0.352152 0
    outer loop
      vertex 2.64672 1.86788 15
      vertex 2.66285 1.82501 25
      vertex 2.66285 1.82501 15
    endloop
  endfacet
  facet normal -0.849198 0.528075 0
    outer loop
      vertex 1.39378 1.95 15
      vertex 1.41797 1.9889 25
      vertex 1.41797 1.9889 15
    endloop
  endfacet
  facet normal -0.849198 0.528075 0
    outer loop
      vertex 1.41797 1.9889 25
      vertex 1.39378 1.95 15
      vertex 1.39378 1.95 25
    endloop
  endfacet
  facet normal -0.729871 0.683585 0
    outer loop
      vertex 1.47371 2.06154 15
      vertex 1.50502 2.09497 25
      vertex 1.50502 2.09497 15
    endloop
  endfacet
  facet normal -0.729871 0.683585 0
    outer loop
      vertex 1.50502 2.09497 25
      vertex 1.47371 2.06154 15
      vertex 1.47371 2.06154 25
    endloop
  endfacet
  facet normal -0.352152 0.935943 0
    outer loop
      vertex 1.77499 2.26285 15
      vertex 1.73212 2.24672 25
      vertex 1.77499 2.26285 25
    endloop
  endfacet
  facet normal -0.352152 0.935943 0
    outer loop
      vertex 1.73212 2.24672 25
      vertex 1.77499 2.26285 15
      vertex 1.73212 2.24672 15
    endloop
  endfacet
  facet normal -0.683476 -0.729973 0
    outer loop
      vertex 1.50502 1.10502 15
      vertex 1.53846 1.07371 25
      vertex 1.50502 1.10502 25
    endloop
  endfacet
  facet normal -0.683476 -0.729973 -0
    outer loop
      vertex 1.53846 1.07371 25
      vertex 1.50502 1.10502 15
      vertex 1.53846 1.07371 15
    endloop
  endfacet
  facet normal 0.973885 -0.227043 0
    outer loop
      vertex 2.67615 1.41883 25
      vertex 2.68655 1.46344 15
      vertex 2.68655 1.46344 25
    endloop
  endfacet
  facet normal 0.973885 -0.227043 0
    outer loop
      vertex 2.68655 1.46344 15
      vertex 2.67615 1.41883 25
      vertex 2.67615 1.41883 15
    endloop
  endfacet
  facet normal -0.935943 0.352152 0
    outer loop
      vertex 1.33715 1.82501 15
      vertex 1.35328 1.86788 25
      vertex 1.35328 1.86788 15
    endloop
  endfacet
  facet normal -0.935943 0.352152 0
    outer loop
      vertex 1.35328 1.86788 25
      vertex 1.33715 1.82501 15
      vertex 1.33715 1.82501 25
    endloop
  endfacet
  facet normal -0.973885 0.227043 0
    outer loop
      vertex 1.31345 1.73656 15
      vertex 1.32385 1.78117 25
      vertex 1.32385 1.78117 15
    endloop
  endfacet
  facet normal -0.973885 0.227043 0
    outer loop
      vertex 1.32385 1.78117 25
      vertex 1.31345 1.73656 15
      vertex 1.31345 1.73656 25
    endloop
  endfacet
  facet normal 0.683585 -0.729871 0
    outer loop
      vertex 2.46154 1.07371 15
      vertex 2.49497 1.10502 25
      vertex 2.46154 1.07371 25
    endloop
  endfacet
  facet normal 0.683585 -0.729871 0
    outer loop
      vertex 2.49497 1.10502 25
      vertex 2.46154 1.07371 15
      vertex 2.49497 1.10502 15
    endloop
  endfacet
  facet normal -0.0980123 0.995185 0
    outer loop
      vertex 1.95422 2.2985 15
      vertex 1.90863 2.29401 25
      vertex 1.95422 2.2985 25
    endloop
  endfacet
  facet normal -0.0980123 0.995185 0
    outer loop
      vertex 1.90863 2.29401 25
      vertex 1.95422 2.2985 15
      vertex 1.90863 2.29401 15
    endloop
  endfacet
  facet normal 0.773013 0.63439 0
    outer loop
      vertex 2.55535 2.02613 25
      vertex 2.52629 2.06154 15
      vertex 2.52629 2.06154 25
    endloop
  endfacet
  facet normal 0.773013 0.63439 0
    outer loop
      vertex 2.52629 2.06154 15
      vertex 2.55535 2.02613 25
      vertex 2.55535 2.02613 15
    endloop
  endfacet
  facet normal 0.582497 -0.812833 0
    outer loop
      vertex 2.3889 1.01797 15
      vertex 2.42613 1.04465 25
      vertex 2.3889 1.01797 25
    endloop
  endfacet
  facet normal 0.582497 -0.812833 0
    outer loop
      vertex 2.42613 1.04465 25
      vertex 2.3889 1.01797 15
      vertex 2.42613 1.04465 15
    endloop
  endfacet
  facet normal -0.910807 0.412832 0
    outer loop
      vertex 1.35328 1.86788 15
      vertex 1.37219 1.9096 25
      vertex 1.37219 1.9096 15
    endloop
  endfacet
  facet normal -0.910807 0.412832 0
    outer loop
      vertex 1.37219 1.9096 25
      vertex 1.35328 1.86788 15
      vertex 1.35328 1.86788 25
    endloop
  endfacet
  facet normal -0.471376 -0.881933 0
    outer loop
      vertex 1.65 0.993782 15
      vertex 1.6904 0.972189 25
      vertex 1.65 0.993782 25
    endloop
  endfacet
  facet normal -0.471376 -0.881933 -0
    outer loop
      vertex 1.6904 0.972189 25
      vertex 1.65 0.993782 15
      vertex 1.6904 0.972189 15
    endloop
  endfacet
  facet normal -0.528043 -0.849218 0
    outer loop
      vertex 1.6111 1.01797 15
      vertex 1.65 0.993782 25
      vertex 1.6111 1.01797 25
    endloop
  endfacet
  facet normal -0.528043 -0.849218 -0
    outer loop
      vertex 1.65 0.993782 25
      vertex 1.6111 1.01797 15
      vertex 1.65 0.993782 15
    endloop
  endfacet
  facet normal 0.63439 -0.773013 0
    outer loop
      vertex 2.42613 1.04465 15
      vertex 2.46154 1.07371 25
      vertex 2.42613 1.04465 25
    endloop
  endfacet
  facet normal 0.63439 -0.773013 0
    outer loop
      vertex 2.46154 1.07371 25
      vertex 2.42613 1.04465 15
      vertex 2.46154 1.07371 15
    endloop
  endfacet
  facet normal -0.88196 0.471325 0
    outer loop
      vertex 1.37219 1.9096 15
      vertex 1.39378 1.95 25
      vertex 1.39378 1.95 15
    endloop
  endfacet
  facet normal -0.88196 0.471325 0
    outer loop
      vertex 1.39378 1.95 25
      vertex 1.37219 1.9096 15
      vertex 1.37219 1.9096 25
    endloop
  endfacet
  facet normal -0.999464 -0.0327478 0
    outer loop
      vertex 1.3015 1.55422 15
      vertex 1.3 1.6 25
      vertex 1.3 1.6 15
    endloop
  endfacet
  facet normal -0.999464 -0.0327478 0
    outer loop
      vertex 1.3 1.6 25
      vertex 1.3015 1.55422 15
      vertex 1.3015 1.55422 25
    endloop
  endfacet
  facet normal -0.995185 -0.0980123 0
    outer loop
      vertex 1.30599 1.50863 15
      vertex 1.3015 1.55422 25
      vertex 1.3015 1.55422 15
    endloop
  endfacet
  facet normal -0.995185 -0.0980123 0
    outer loop
      vertex 1.3015 1.55422 25
      vertex 1.30599 1.50863 15
      vertex 1.30599 1.50863 25
    endloop
  endfacet
  facet normal -0.910807 -0.412832 0
    outer loop
      vertex 1.37219 1.2904 15
      vertex 1.35328 1.33212 25
      vertex 1.35328 1.33212 15
    endloop
  endfacet
  facet normal -0.910807 -0.412832 0
    outer loop
      vertex 1.35328 1.33212 25
      vertex 1.37219 1.2904 15
      vertex 1.37219 1.2904 25
    endloop
  endfacet
  facet normal -0.227064 -0.97388 0
    outer loop
      vertex 1.81883 0.923851 15
      vertex 1.86344 0.91345 25
      vertex 1.81883 0.923851 25
    endloop
  endfacet
  facet normal -0.227064 -0.97388 -0
    outer loop
      vertex 1.86344 0.91345 25
      vertex 1.81883 0.923851 15
      vertex 1.86344 0.91345 15
    endloop
  endfacet
  facet normal -0.849198 -0.528075 0
    outer loop
      vertex 1.41797 1.2111 15
      vertex 1.39378 1.25 25
      vertex 1.39378 1.25 15
    endloop
  endfacet
  facet normal -0.849198 -0.528075 0
    outer loop
      vertex 1.39378 1.25 25
      vertex 1.41797 1.2111 15
      vertex 1.41797 1.2111 25
    endloop
  endfacet
  facet normal -0.88196 -0.471325 0
    outer loop
      vertex 1.39378 1.25 15
      vertex 1.37219 1.2904 25
      vertex 1.37219 1.2904 15
    endloop
  endfacet
  facet normal -0.88196 -0.471325 0
    outer loop
      vertex 1.37219 1.2904 25
      vertex 1.39378 1.25 15
      vertex 1.39378 1.25 25
    endloop
  endfacet
  facet normal -0.412742 -0.910848 0
    outer loop
      vertex 1.6904 0.972189 15
      vertex 1.73212 0.953284 25
      vertex 1.6904 0.972189 25
    endloop
  endfacet
  facet normal -0.412742 -0.910848 -0
    outer loop
      vertex 1.73212 0.953284 25
      vertex 1.6904 0.972189 15
      vertex 1.73212 0.953284 15
    endloop
  endfacet
  facet normal -0.352267 -0.9359 0
    outer loop
      vertex 1.73212 0.953284 15
      vertex 1.77499 0.937148 25
      vertex 1.73212 0.953284 25
    endloop
  endfacet
  facet normal -0.352267 -0.9359 -0
    outer loop
      vertex 1.77499 0.937148 25
      vertex 1.73212 0.953284 15
      vertex 1.77499 0.937148 15
    endloop
  endfacet
  facet normal -0.773013 0.63439 0
    outer loop
      vertex 1.44465 2.02613 15
      vertex 1.47371 2.06154 25
      vertex 1.47371 2.06154 15
    endloop
  endfacet
  facet normal -0.773013 0.63439 0
    outer loop
      vertex 1.47371 2.06154 25
      vertex 1.44465 2.02613 15
      vertex 1.44465 2.02613 25
    endloop
  endfacet
endsolid OpenSCAD_Model
