<?xml version="1.0" standalone="no"?>
<!DOCTYPE svg PUBLIC "-//W3C//DTD SVG 20010904//EN"
 "http://www.w3.org/TR/2001/REC-SVG-20010904/DTD/svg10.dtd">
<svg version="1.0" xmlns="http://www.w3.org/2000/svg"
 width="1706.000000pt" height="1280.000000pt" viewBox="0 0 1706.000000 1280.000000"
 preserveAspectRatio="xMidYMid meet">
<metadata>
Created by potrace 1.16, written by Peter Selinger 2001-2019
</metadata>
<g transform="translate(0.000000,1280.000000) scale(0.100000,-0.100000)"
fill="#000000" stroke="none">
<path d="M5186 7538 c-18 -25 -21 -58 -7 -58 5 0 21 4 35 10 33 12 38 70 7 70
-11 0 -27 -10 -35 -22z"/>
<path d="M5334 7536 c-11 -28 1 -51 25 -51 28 0 47 25 38 49 -8 20 -56 21 -63
2z"/>
<path d="M4156 7519 c-14 -11 -26 -27 -26 -35 0 -16 26 -19 35 -4 3 6 17 7 30
4 23 -6 45 17 45 45 0 19 -56 12 -84 -10z"/>
<path d="M3722 7508 c-7 -7 -12 -19 -12 -27 0 -26 -184 -292 -254 -367 -72
-78 -183 -159 -232 -169 -25 -5 -38 -1 -58 17 -23 20 -29 37 -42 123 -23 146
-15 217 35 313 23 43 41 81 41 85 0 16 -26 5 -46 -20 -18 -23 -25 -26 -35 -15
-31 29 -44 12 -108 -140 -74 -176 -139 -307 -197 -394 -83 -124 -100 -166 -61
-151 13 5 196 274 251 370 46 78 69 60 80 -63 16 -177 94 -212 249 -110 67 44
185 158 223 215 17 26 38 32 49 15 3 -5 -8 -49 -24 -97 -65 -194 -76 -253 -48
-253 9 0 22 31 36 83 12 45 33 111 46 147 12 36 37 112 55 170 17 58 45 135
61 171 16 36 29 75 29 87 0 24 -19 29 -38 10z"/>
<path d="M4740 7460 c0 -5 13 -31 28 -57 16 -27 37 -81 46 -121 24 -95 12
-183 -38 -289 -40 -83 -42 -93 -23 -93 18 0 83 140 103 220 18 75 15 129 -15
217 -28 83 -59 133 -82 133 -10 0 -19 -4 -19 -10z"/>
<path d="M8614 7456 c-10 -26 1 -51 21 -51 15 0 21 8 23 33 3 27 0 32 -18 32
-11 0 -23 -6 -26 -14z"/>
<path d="M8792 7428 c2 -17 20 -32 67 -55 110 -54 185 -149 217 -272 17 -69
14 -130 -12 -234 -17 -65 -69 -180 -90 -198 -18 -15 -18 -39 0 -39 53 0 156
261 156 394 0 48 -20 127 -44 178 -30 63 -121 164 -169 187 -24 12 -52 30 -62
41 -10 11 -29 20 -42 20 -20 0 -24 -4 -21 -22z"/>
<path d="M4057 7422 c-20 -22 -22 -42 -4 -42 16 0 47 32 47 48 0 18 -25 14
-43 -6z"/>
<path d="M9491 7416 c-7 -8 -11 -27 -9 -43 6 -50 78 -40 78 11 0 41 -45 62
-69 32z"/>
<path d="M4003 7355 c-3 -9 -3 -18 0 -22 10 -10 37 6 37 22 0 20 -29 20 -37 0z"/>
<path d="M7574 7328 c-102 -110 -144 -195 -144 -291 0 -107 39 -174 113 -192
20 -6 27 -4 27 8 0 8 -11 18 -24 21 -32 8 -62 51 -78 109 -13 51 -2 120 33
188 29 58 108 149 130 149 12 0 19 7 19 20 0 32 -41 25 -76 -12z"/>
<path d="M6878 7294 c-38 -19 -68 -38 -68 -43 0 -5 -9 -11 -20 -14 -11 -3 -20
-12 -20 -21 0 -19 26 -21 37 -3 12 21 113 64 165 70 50 7 65 -2 60 -35 -5 -27
23 -22 42 7 34 52 10 75 -76 75 -40 -1 -69 -9 -120 -36z"/>
<path d="M11436 7281 c-25 -47 -49 -141 -53 -206 -5 -67 19 -150 49 -169 29
-18 32 1 7 51 -28 60 -30 136 -5 218 20 64 40 95 63 95 27 0 9 35 -19 38 -21
3 -30 -3 -42 -27z"/>
<path d="M11715 7286 c-22 -23 -45 -81 -45 -119 0 -27 26 -73 56 -96 32 -25
81 -27 129 -4 54 26 60 13 48 -106 -10 -104 -22 -131 -55 -131 -29 0 -78 -29
-78 -45 0 -18 18 -19 56 -5 17 7 31 7 37 1 5 -5 10 -58 11 -118 2 -120 13
-156 49 -151 18 2 22 9 20 36 0 18 -8 41 -17 51 -12 13 -16 38 -16 93 0 89 14
108 78 108 31 0 42 4 42 15 0 10 -10 15 -29 15 -16 0 -38 8 -49 18 -20 17 -20
20 -7 176 8 88 12 163 9 168 -3 4 -14 8 -24 8 -12 0 -30 16 -45 40 -14 22 -31
40 -39 40 -8 0 -16 7 -20 15 -9 25 -82 19 -111 -9z m132 -50 c38 -59 39 -83 7
-117 -21 -22 -37 -29 -66 -29 -32 0 -41 5 -59 33 -41 65 -5 147 65 147 24 0
36 -8 53 -34z"/>
<path d="M3960 7286 c0 -8 -6 -16 -13 -19 -16 -6 -81 -136 -113 -228 -46 -130
-34 -289 21 -289 19 0 19 24 1 39 -30 25 -26 142 10 251 17 51 105 223 117
228 13 6 7 32 -8 32 -8 0 -15 -6 -15 -14z"/>
<path d="M12184 7265 c-7 -18 3 -35 20 -35 8 0 31 -19 53 -43 81 -88 113 -249
73 -362 -34 -95 -34 -95 -18 -95 27 0 68 97 74 174 5 56 2 87 -16 150 -26 93
-51 137 -109 189 -43 39 -68 46 -77 22z"/>
<path d="M4313 7243 c-42 -21 -46 -49 -5 -37 75 22 132 -6 132 -66 0 -57 -148
-200 -208 -200 -25 0 -52 31 -52 59 0 25 40 124 52 129 14 6 8 32 -7 32 -8 0
-15 -5 -15 -10 0 -6 -9 -20 -20 -32 -28 -30 -52 -110 -44 -144 11 -46 33 -64
76 -64 22 0 48 4 58 10 13 7 21 5 31 -6 11 -14 10 -22 -9 -55 -12 -21 -22 -45
-22 -53 0 -8 -10 -26 -22 -40 -21 -23 -33 -25 -156 -34 -73 -5 -136 -12 -139
-15 -3 -4 -3 -14 1 -23 5 -14 14 -15 54 -9 26 4 81 10 122 15 96 9 107 1 85
-60 -8 -23 -18 -68 -22 -98 -5 -49 -4 -54 13 -50 15 2 20 15 25 54 14 114 47
168 110 178 27 4 39 11 39 22 0 13 -7 15 -29 11 -43 -9 -60 15 -39 56 9 18 32
68 52 111 20 44 61 110 91 147 58 72 70 105 35 96 -16 -4 -26 4 -44 32 -17 26
-35 41 -64 49 -46 14 -39 15 -79 -5z"/>
<path d="M10852 7230 c-39 -24 -62 -73 -62 -131 0 -34 6 -47 35 -76 33 -33 39
-35 81 -30 34 3 57 15 95 47 l50 42 25 -23 c34 -32 30 -55 -17 -87 -110 -74
-186 -142 -213 -191 -74 -137 -4 -305 133 -319 68 -6 103 15 136 83 34 69 48
177 40 311 -7 100 -6 101 19 122 34 27 35 56 1 50 -33 -7 -50 15 -65 82 -7 30
-14 60 -16 67 -2 7 -22 26 -45 43 -36 26 -51 30 -103 30 -44 0 -70 -6 -94 -20z
m168 -35 c32 -29 24 -54 -33 -112 -61 -60 -95 -68 -134 -31 -17 16 -23 33 -23
64 0 36 5 47 37 74 33 29 41 32 85 28 27 -3 57 -13 68 -23z m98 -394 c5 -143
-14 -223 -63 -268 -47 -45 -91 -45 -141 -1 -99 88 -81 221 45 322 140 112 154
107 159 -53z"/>
<path d="M6104 7223 c-3 -10 -10 -29 -14 -43 -5 -14 -11 -38 -15 -55 -11 -48
-21 -54 -81 -48 -44 5 -54 3 -54 -10 0 -18 21 -27 65 -27 43 0 50 -12 46 -82
-2 -46 0 -58 12 -58 17 0 27 29 27 82 0 41 27 68 67 68 14 0 23 6 23 15 0 9
-9 15 -24 15 -43 0 -51 24 -27 79 11 28 21 57 21 65 0 22 -39 20 -46 -1z"/>
<path d="M13260 7222 c0 -22 39 -42 80 -42 38 0 44 -11 45 -95 1 -109 49 -182
148 -224 51 -22 94 -20 135 7 22 14 31 42 13 42 -5 0 -25 -7 -46 -15 -30 -13
-43 -14 -73 -4 -48 15 -96 61 -122 116 -24 51 -26 91 -4 121 14 20 23 22 120
22 83 0 104 3 104 14 0 10 -17 16 -55 20 -30 3 -81 9 -112 12 -32 3 -91 15
-132 25 -92 24 -101 24 -101 1z"/>
<path d="M5071 7204 c-24 -30 -35 -96 -29 -166 4 -42 11 -57 37 -80 36 -32 85
-37 130 -13 25 12 31 13 41 0 9 -11 8 -27 -5 -72 -9 -32 -22 -64 -27 -70 -7
-9 -42 -13 -108 -13 -107 0 -130 -5 -130 -26 0 -11 22 -14 104 -14 128 0 135
-5 106 -81 -12 -30 -32 -65 -45 -79 -28 -29 -53 -126 -37 -142 21 -21 39 2 71
88 18 49 42 114 53 144 27 73 33 78 81 82 41 3 42 4 45 41 4 42 -16 52 -33 16
-17 -36 -30 -17 -29 41 1 50 16 105 54 196 13 31 13 32 -57 103 l-71 71 -65 0
c-58 0 -68 -3 -86 -26z m130 -29 c62 -32 76 -62 53 -111 -21 -44 -78 -94 -108
-94 -41 0 -61 35 -61 106 0 56 4 66 30 94 16 16 30 30 32 30 2 0 26 -11 54
-25z"/>
<path d="M9450 7221 c-30 -8 -76 -73 -85 -119 -4 -23 -1 -42 10 -59 15 -23 22
-25 66 -21 57 6 75 -8 64 -49 -10 -41 -34 -63 -77 -69 -29 -5 -38 -11 -38 -26
0 -17 5 -20 30 -16 38 6 43 -1 44 -71 1 -49 4 -56 21 -56 18 0 20 7 20 56 0
65 15 89 56 89 19 0 29 5 29 15 0 8 -8 15 -18 15 -39 0 -41 18 -15 114 38 134
39 147 11 172 -26 24 -80 35 -118 25z m80 -55 c25 -32 -84 -132 -115 -106 -21
17 -19 49 5 88 17 27 25 32 59 32 21 0 44 -6 51 -14z"/>
<path d="M10050 7150 c0 -68 -1 -72 -30 -88 -33 -19 -40 -42 -12 -42 30 0 42
-22 42 -77 0 -40 4 -53 15 -53 11 0 15 13 15 54 0 63 21 86 77 86 23 0 33 5
33 15 0 11 -11 15 -38 15 -53 0 -62 13 -62 92 0 61 -2 68 -20 68 -18 0 -20 -7
-20 -70z"/>
<path d="M7822 7187 c-23 -28 -52 -103 -52 -138 0 -54 28 -84 79 -83 22 1 47
6 54 12 24 20 36 -5 23 -49 -16 -52 -25 -60 -93 -73 -43 -9 -59 -17 -61 -30
-4 -17 1 -18 46 -13 72 8 78 -2 56 -101 -18 -86 -13 -149 13 -159 35 -14 57
55 28 87 -14 16 -14 25 1 91 9 41 21 79 26 86 5 6 27 14 49 18 29 5 39 11 39
26 0 13 -7 19 -24 19 -40 0 -51 23 -36 78 7 26 21 65 32 86 23 50 23 66 0 66
-11 0 -27 9 -37 20 -37 41 -60 16 -28 -29 16 -23 15 -25 -25 -63 -48 -44 -61
-46 -91 -14 -20 21 -21 28 -12 62 17 64 38 86 73 79 25 -6 29 -4 26 12 -4 23
-69 31 -86 10z"/>
<path d="M8676 7149 c-37 -44 -37 -119 0 -148 30 -24 52 -26 89 -9 21 9 29 9
41 -4 13 -13 14 -22 5 -55 -14 -50 -28 -62 -100 -88 -43 -15 -57 -25 -59 -43
-4 -27 3 -27 53 -2 55 28 63 17 57 -80 -4 -76 -4 -80 17 -80 19 0 21 6 22 58
1 88 18 134 56 152 33 15 45 40 19 40 -33 0 -34 25 -4 110 47 133 46 124 9
117 -27 -6 -37 -2 -67 28 -47 48 -100 49 -138 4z m105 -28 c35 -36 36 -45 4
-76 -26 -27 -64 -32 -83 -13 -17 17 -15 78 5 100 23 25 40 23 74 -11z"/>
<path d="M6649 7094 c-12 -20 -24 -57 -27 -83 -4 -42 0 -51 42 -108 61 -83
128 -116 266 -129 59 -6 72 -4 120 21 59 29 120 81 120 102 0 22 -20 15 -61
-21 -40 -34 -134 -76 -170 -76 -26 0 -136 39 -176 63 -41 24 -93 96 -99 140
-3 21 2 46 15 72 25 46 26 55 7 55 -8 0 -24 -16 -37 -36z"/>
<path d="M12742 7058 c3 -26 1 -25 151 -13 63 6 87 12 87 21 0 11 -26 14 -121
14 -119 0 -120 0 -117 -22z"/>
<path d="M12742 6998 c-35 -35 2 -48 134 -48 68 0 84 3 84 15 0 12 -15 15 -79
15 -58 0 -82 4 -91 15 -15 18 -32 19 -48 3z"/>
<path d="M13000 6975 c0 -10 10 -15 30 -15 20 0 30 5 30 15 0 10 -10 15 -30
15 -20 0 -30 -5 -30 -15z"/>
<path d="M8292 6908 c-15 -19 -42 -117 -42 -155 0 -50 27 -43 35 10 4 23 18
65 31 93 13 28 24 54 24 57 0 12 -37 7 -48 -5z"/>
<path d="M4687 6842 c-20 -22 -22 -42 -4 -42 16 0 47 32 47 48 0 18 -25 14
-43 -6z"/>
</g>
</svg>
